<mxfile host="app.diagrams.net" agent="Mozilla/5.0 (Windows NT 10.0; Win64; x64) AppleWebKit/537.36 (KHTML, like Gecko) Chrome/109.0.0.0 Safari/537.36" version="24.9.1">
  <diagram name="PÃ¡gina-1" id="N2WiynYanpoJoHV4ZBwj">
    <mxGraphModel dx="1194" dy="1913" grid="1" gridSize="10" guides="1" tooltips="1" connect="1" arrows="1" fold="1" page="1" pageScale="1" pageWidth="827" pageHeight="1169" math="0" shadow="0">
      <root>
        <mxCell id="0" />
        <mxCell id="1" parent="0" />
        <mxCell id="zELmGNDtOQ9E1W_eVcMO-1" value="Professor" style="swimlane;fontStyle=1;align=center;verticalAlign=top;childLayout=stackLayout;horizontal=1;startSize=26;horizontalStack=0;resizeParent=1;resizeParentMax=0;resizeLast=0;collapsible=1;marginBottom=0;whiteSpace=wrap;html=1;fillColor=#ffffff;" vertex="1" parent="1">
          <mxGeometry x="380" y="-170" width="472" height="124" as="geometry" />
        </mxCell>
        <mxCell id="zELmGNDtOQ9E1W_eVcMO-2" value="&lt;div style=&quot;line-height: 160%;&quot;&gt;+ titulacao: String&lt;/div&gt;&lt;div style=&quot;line-height: 160%;&quot;&gt;+ disciplinas: Disciplina&lt;br&gt;&lt;/div&gt;&lt;div style=&quot;line-height: 160%;&quot;&gt;+ turmas: Turma&lt;br&gt;&lt;/div&gt;" style="text;strokeColor=none;fillColor=none;align=left;verticalAlign=middle;spacingLeft=4;spacingRight=4;overflow=hidden;rotatable=0;points=[[0,0.5],[1,0.5]];portConstraint=eastwest;whiteSpace=wrap;html=1;" vertex="1" parent="zELmGNDtOQ9E1W_eVcMO-1">
          <mxGeometry y="26" width="472" height="64" as="geometry" />
        </mxCell>
        <mxCell id="zELmGNDtOQ9E1W_eVcMO-3" value="" style="line;strokeWidth=1;fillColor=none;align=left;verticalAlign=middle;spacingTop=-1;spacingLeft=3;spacingRight=3;rotatable=0;labelPosition=right;points=[];portConstraint=eastwest;strokeColor=inherit;" vertex="1" parent="zELmGNDtOQ9E1W_eVcMO-1">
          <mxGeometry y="90" width="472" height="8" as="geometry" />
        </mxCell>
        <mxCell id="zELmGNDtOQ9E1W_eVcMO-4" value="+ void adicionarDisciplina(Disciplina d)" style="text;strokeColor=none;fillColor=none;align=left;verticalAlign=top;spacingLeft=4;spacingRight=4;overflow=hidden;rotatable=0;points=[[0,0.5],[1,0.5]];portConstraint=eastwest;whiteSpace=wrap;html=1;" vertex="1" parent="zELmGNDtOQ9E1W_eVcMO-1">
          <mxGeometry y="98" width="472" height="26" as="geometry" />
        </mxCell>
        <mxCell id="zELmGNDtOQ9E1W_eVcMO-5" value="&lt;b&gt;Usuario&lt;/b&gt;" style="swimlane;fontStyle=0;childLayout=stackLayout;horizontal=1;startSize=26;fillColor=#FBF7FF;horizontalStack=0;resizeParent=1;resizeParentMax=0;resizeLast=0;collapsible=1;marginBottom=0;whiteSpace=wrap;html=1;" vertex="1" parent="1">
          <mxGeometry x="620" y="120" width="470" height="78" as="geometry" />
        </mxCell>
        <mxCell id="zELmGNDtOQ9E1W_eVcMO-6" value="+ nome: String" style="text;strokeColor=none;fillColor=none;align=left;verticalAlign=top;spacingLeft=4;spacingRight=4;overflow=hidden;rotatable=0;points=[[0,0.5],[1,0.5]];portConstraint=eastwest;whiteSpace=wrap;html=1;" vertex="1" parent="zELmGNDtOQ9E1W_eVcMO-5">
          <mxGeometry y="26" width="470" height="26" as="geometry" />
        </mxCell>
        <mxCell id="zELmGNDtOQ9E1W_eVcMO-7" value="+ ID: String" style="text;strokeColor=none;fillColor=none;align=left;verticalAlign=top;spacingLeft=4;spacingRight=4;overflow=hidden;rotatable=0;points=[[0,0.5],[1,0.5]];portConstraint=eastwest;whiteSpace=wrap;html=1;" vertex="1" parent="zELmGNDtOQ9E1W_eVcMO-5">
          <mxGeometry y="52" width="470" height="26" as="geometry" />
        </mxCell>
        <mxCell id="zELmGNDtOQ9E1W_eVcMO-8" style="edgeStyle=orthogonalEdgeStyle;rounded=0;orthogonalLoop=1;jettySize=auto;html=1;entryX=0.386;entryY=1.038;entryDx=0;entryDy=0;entryPerimeter=0;" edge="1" parent="1" source="zELmGNDtOQ9E1W_eVcMO-5" target="zELmGNDtOQ9E1W_eVcMO-4">
          <mxGeometry relative="1" as="geometry" />
        </mxCell>
      </root>
    </mxGraphModel>
  </diagram>
</mxfile>
